<?xml version="1.0" standalone="no"?><!DOCTYPE svg PUBLIC "-//W3C//DTD SVG 1.1//EN" "http://www.w3.org/Graphics/SVG/1.1/DTD/svg11.dtd"><svg t="1615382192030" class="icon" viewBox="0 0 1024 1024" version="1.1" xmlns="http://www.w3.org/2000/svg" p-id="8710" xmlns:xlink="http://www.w3.org/1999/xlink" width="128" height="128"><defs><style type="text/css"></style></defs><path d="M696.917333 85.333333H327.04C182.442667 85.333333 85.333333 186.794667 85.333333 337.792v348.458667C85.333333 837.205333 182.442667 938.666667 327.04 938.666667h369.834667C841.514667 938.666667 938.666667 837.205333 938.666667 686.250667V337.792C938.666667 186.752 841.514667 85.333333 696.917333 85.333333z" fill="#2c2c2c" opacity=".4" p-id="8711"></path><path d="M482.730667 479.914667h243.2c17.493333 0 32 14.506667 32 32v78.933333c0 17.92-14.506667 32-32 32-17.92 0-32-14.08-32-32v-46.933333h-56.746667v46.933333c0 17.92-14.506667 32-32 32-17.92 0-32-14.08-32-32v-46.933333h-90.453333a110.08 110.08 0 0 1-105.386667 78.933333c-61.44 0-111.36-49.493333-111.36-110.933333 0-61.013333 49.92-110.933333 111.36-110.933334 49.92 0 91.733333 33.28 105.386667 78.933334z m-152.746667 32a47.146667 47.146667 0 0 0 94.293333 0 47.146667 47.146667 0 0 0-94.293333 0z" fill="#2c2c2c" p-id="8712"></path></svg>