<?xml version="1.0" standalone="no"?><!DOCTYPE svg PUBLIC "-//W3C//DTD SVG 1.1//EN" "http://www.w3.org/Graphics/SVG/1.1/DTD/svg11.dtd"><svg t="1615467380403" class="icon" viewBox="0 0 1031 1024" version="1.1" xmlns="http://www.w3.org/2000/svg" p-id="7636" xmlns:xlink="http://www.w3.org/1999/xlink" width="201.3671875" height="200"><defs><style type="text/css"></style></defs><path d="M914.99813545 155.72615557h-346.51641094v-40.55458623a53.62217578 53.62217578 0 0 0-106.79374424 0v40.55458623H115.17156933a53.17156934 53.17156934 0 0 0 1e-8 106.34313779h5.40727822v479.4453334a79.75735313 79.75735313 0 0 0 79.75735312 79.75735313H422.48521338l-73.89946934 71.64643623a40.55458623 40.55458623 0 0 0 0 57.22702734 40.55458623 40.55458623 0 0 0 57.22702823 0l109.04677646-109.04677646 109.04677734 109.04677646a41.00519268 41.00519268 0 0 0 57.6776338 0 40.55458623 40.55458623 0 0 0 0-57.22702734l-71.64643623-71.64643623H828.03107744a79.75735313 79.75735313 0 0 0 79.757354-79.75735313V262.06929336h5.40727823a53.17156934 53.17156934 0 0 0 0-106.34313779zM262.97050625 318.39510781h501.07444628a29.28942334 29.28942334 0 1 1 0 58.57884756H262.97050625a29.28942334 29.28942334 0 1 1 0-58.57884756z m246.48176426 159.06410068a29.28942334 29.28942334 0 0 1-29.28942334 29.28942335H264.32232559a29.28942334 29.28942334 0 1 1 0-58.57884757h215.84052158a29.28942334 29.28942334 0 0 1 29.28942334 29.28942422z m-274.41936827 135.18195469a29.28942334 29.28942334 0 0 1 29.28942334-29.28942334h219.89598047a29.28942334 29.28942334 0 0 1 0 58.57884669H264.32232559a29.28942334 29.28942334 0 0 1-29.28942335-28.38821046z m486.20443096 127.07103779a127.07103779 127.07103779 0 1 1 126.62043135-127.07103779 127.07103779 127.07103779 0 0 1-126.62043135 127.97225069z" p-id="7637" fill="#ffffff"></path><path d="M737.90977432 596.41932852v-66.68976446a19.37607979 19.37607979 0 0 0-38.75216045 0v86.06584424a19.37607979 19.37607979 0 0 0 19.37608066 19.37608066h86.06584424a19.37607979 19.37607979 0 0 0 0-38.75216044z" p-id="7638" fill="#ffffff"></path></svg>