<?xml version="1.0" standalone="no"?><!DOCTYPE svg PUBLIC "-//W3C//DTD SVG 1.1//EN" "http://www.w3.org/Graphics/SVG/1.1/DTD/svg11.dtd"><svg t="1615553231730" class="icon" viewBox="0 0 1024 1024" version="1.1" xmlns="http://www.w3.org/2000/svg" p-id="8090" xmlns:xlink="http://www.w3.org/1999/xlink" width="200" height="200"><defs><style type="text/css"></style></defs><path d="M690.7 922.7H333.3c-42.6 0-77.2-34.6-77.2-77.2v-667c0-42.6 34.6-77.2 77.2-77.2h357.4c42.6 0 77.2 34.6 77.2 77.2v666.9c0 42.6-34.6 77.3-77.2 77.3zM333.3 131.3c-26 0-47.2 21.2-47.2 47.2v666.9c0 26 21.2 47.2 47.2 47.2h357.4c26 0 47.2-21.2 47.2-47.2V178.5c0-26-21.2-47.2-47.2-47.2H333.3z" fill="#ffffff" p-id="8091"></path><path d="M561.6 208.1h-99.1c-8.3 0-15-6.7-15-15s6.7-15 15-15h99.1c8.3 0 15 6.7 15 15s-6.8 15-15 15zM609.1 841.1H414.9c-2.8 0-5-2.2-5-5s2.2-5 5-5H609c2.8 0 5 2.2 5 5s-2.2 5-4.9 5z" fill="#ffffff" p-id="8092"></path></svg>