<?xml version="1.0" standalone="no"?><!DOCTYPE svg PUBLIC "-//W3C//DTD SVG 1.1//EN" "http://www.w3.org/Graphics/SVG/1.1/DTD/svg11.dtd"><svg t="1615552790119" class="icon" viewBox="0 0 1024 1024" version="1.1" xmlns="http://www.w3.org/2000/svg" p-id="2819" xmlns:xlink="http://www.w3.org/1999/xlink" width="200" height="200"><defs><style type="text/css"></style></defs><path d="M832 80c17.673 0 32 14.327 32 32v800c0 17.673-14.327 32-32 32H292c-72.901 0-132-59.099-132-132V212c0-72.902 59.098-132 132-132z m-32 664H292c-37.18 0-67.39 29.839-67.99 66.876L224 812c0 37.555 30.445 68 68 68h508V744z m0-600H292c-37.18 0-67.39 29.839-67.99 66.875L224 212l-0.002 486.84c19.279-11.61 41.767-18.432 65.818-18.822L292 680H800V144z" p-id="2820" fill="#ffffff"></path></svg>