<?xml version="1.0" standalone="no"?><!DOCTYPE svg PUBLIC "-//W3C//DTD SVG 1.1//EN" "http://www.w3.org/Graphics/SVG/1.1/DTD/svg11.dtd"><svg t="1615467366657" class="icon" viewBox="0 0 1024 1024" version="1.1" xmlns="http://www.w3.org/2000/svg" p-id="7390" xmlns:xlink="http://www.w3.org/1999/xlink" width="200" height="200"><defs><style type="text/css"></style></defs><path d="M696.9 921.2h-506c-43.7 0-79.2-36.9-79.2-82.3V291.8c0-45.4 35.5-82.3 79.2-82.3H862c43.7 0 79.2 36.9 79.2 82.3v356.3c0 20.4-7.2 39.9-20.4 55.1l-165 190.7c-15.1 17.4-36.5 27.3-58.9 27.3z m-506-663.1c-16.9 0-30.6 15.1-30.6 33.7v547.1c0 18.6 13.7 33.7 30.6 33.7h506c8.3 0 16.3-3.8 22.1-10.5l165.1-190.8c5.5-6.3 8.5-14.5 8.5-23.2V291.8c0-18.6-13.7-33.7-30.6-33.7H190.9z" fill="#ffffff" p-id="7391"></path><path d="M710 911.9c-13.8 0-25-11.2-25-25V702.4c0-32.2 26.2-58.4 58.4-58.4h163.5c13.8 0 25 11.2 25 25s-11.2 25-25 25H743.4c-4.6 0-8.4 3.8-8.4 8.4v184.5c0 13.8-11.2 25-25 25z" fill="#ffffff" p-id="7392"></path><path d="M617.6 710.6h-228c-13.8 0-25-11.2-25-25s11.2-25 25-25h228c13.8 0 25 11.2 25 25s-11.2 25-25 25zM557.6 595.6h-168c-13.8 0-25-11.2-25-25s11.2-25 25-25h168c13.8 0 25 11.2 25 25s-11.2 25-25 25zM647.6 480.6h-258c-13.8 0-25-11.2-25-25s11.2-25 25-25h258c13.8 0 25 11.2 25 25s-11.2 25-25 25z" fill="#ffffff" p-id="7393"></path><path d="M526 475.3h-16.8c-59.9 0-108.7-51.5-108.7-114.9v-65.3c0-11 9-20 20-20s20 9 20 20v65.3c0 41.3 30.8 74.9 68.7 74.9H526c37.9 0 68.7-33.6 68.7-74.9V172.5c0-11 9-20 20-20s20 9 20 20v187.9c0 63.4-48.8 114.9-108.7 114.9z" fill="#ffffff" p-id="7394"></path><path d="M519.1 415.1c-32.2 0-58.4-27.4-58.4-61.1V156.5c0-11 9-20 20-20s20 9 20 20V354c0 11.4 8.4 21.1 18.4 21.1s18.4-9.7 18.4-21.1v-72.5c0-11 9-20 20-20s20 9 20 20V354c0 33.7-26.2 61.1-58.4 61.1z" fill="#ffffff" p-id="7395"></path><path d="M614.7 340.8c-11 0-20-9-20-20V171.1c0-28.7-21.3-52.1-47.4-52.1s-47.4 23.4-47.4 52.1v149.6c0 11-9 20-20 20s-20-9-20-20V171.1c0-50.8 39.2-92.1 87.4-92.1s87.4 41.3 87.4 92.1v149.7c0 11-9 20-20 20z" fill="#ffffff" p-id="7396"></path></svg>