<?xml version="1.0" standalone="no"?><!DOCTYPE svg PUBLIC "-//W3C//DTD SVG 1.1//EN" "http://www.w3.org/Graphics/SVG/1.1/DTD/svg11.dtd"><svg t="1615553277222" class="icon" viewBox="0 0 1123 1024" version="1.1" xmlns="http://www.w3.org/2000/svg" p-id="8949" xmlns:xlink="http://www.w3.org/1999/xlink" width="219.3359375" height="200"><defs><style type="text/css"></style></defs><path d="M302.583 351.279a37.717 37.717 0 0 0-42.378 42.378v2.33a187.314 187.314 0 0 0 15.256 34.75l2.543 4.239 4.66 2.12a42.379 42.379 0 0 0 47.889-9.324 44.074 44.074 0 0 0 8.476-49.16 41.107 41.107 0 0 0-36.446-27.333z m-41.954-106.37a63.568 63.568 0 0 0 17.163 41.318l4.45 3.179a42.379 42.379 0 0 0 17.375 3.814 42.379 42.379 0 0 0 30.3-13.138 44.074 44.074 0 0 0 9.112-49.16 41.107 41.107 0 0 0-36.658-27.333 38.988 38.988 0 0 0-31.36 11.018 39.412 39.412 0 0 0-10.382 30.3z m40.26 253.847h-1.272c-21.19 1.695-33.903 26.275-37.505 33.903l-2.12 4.874 1.06 5.297a118.66 118.66 0 0 0 14.41 35.386l2.542 4.238 4.66 2.119a42.379 42.379 0 0 0 47.889-9.323 44.074 44.074 0 0 0 8.476-49.16 42.379 42.379 0 0 0-38.14-27.334z m115.057-220.37h389.247a21.19 21.19 0 0 0 9.96 2.332h3.39a36.446 36.446 0 0 0 23.943-23.52 33.903 33.903 0 0 0-3.178-42.38 43.862 43.862 0 0 0-29.242-16.74h-394.12a44.498 44.498 0 0 0-30.09 17.589l-2.33 3.602a33.903 33.903 0 0 0 3.179 42.379 42.379 42.379 0 0 0 29.24 16.74z" p-id="8950" fill="#ffffff"></path><path d="M1123.033 144.895A143.452 143.452 0 0 0 989.116 6.74 90.478 90.478 0 0 0 949.28 0.172H275.46a156.8 156.8 0 0 0-148.324 151.503v574.654a122.262 122.262 0 0 0-105.947 75.858 150.02 150.02 0 0 0 0 149.81 120.78 120.78 0 0 0 109.76 71.83 137.307 137.307 0 0 0 13.774 0H801.59A146.206 146.206 0 0 0 942.5 872.747V186.002h148.325c18.434 0 25.003-8.052 27.122-15.256a38.353 38.353 0 0 0 5.086-25.851z m-84.758-38.777h-90.69a63.568 63.568 0 0 1 38.988-29.665 77.34 77.34 0 0 1 51.702 29.665z m-177.354 46.617v712.383a77.553 77.553 0 0 1-75.222 76.706h-5.51a117.813 117.813 0 0 1-54.88-25.428 69.29 69.29 0 0 1 1.483-73.315 72.256 72.256 0 0 1 65.052-35.386 44.498 44.498 0 0 0 30.088-17.587l2.543-3.602a35.174 35.174 0 0 0-3.178-42.379 44.074 44.074 0 0 0-29.453-16.95H201.51V155.065a103.828 103.828 0 0 1 26.487-53.398 61.66 61.66 0 0 1 48.735-19.494h602.623a127.136 127.136 0 0 0-18.646 69.5zM661.953 948.179h-519.35a73.103 73.103 0 0 1-64.84-35.81 69.925 69.925 0 0 1 0-75.645 72.89 72.89 0 0 1 49.373-34.327v5.297h534.817a136.035 136.035 0 0 0 0 140.485z" p-id="8951" fill="#ffffff"></path><path d="M713.02 344.922H416.37a44.498 44.498 0 0 0-30.09 17.587l-2.33 3.602a34.75 34.75 0 0 0 2.967 42.379 43.862 43.862 0 0 0 29.453 16.95h301.947a31.784 31.784 0 0 0 27.122-21.19 34.115 34.115 0 0 0-3.178-42.377 43.862 43.862 0 0 0-29.242-16.951z m-121.414 147.69H422.09A44.074 44.074 0 0 0 392 510.198l-2.541 3.603a34.539 34.539 0 0 0 3.178 42.378 44.286 44.286 0 0 0 29.453 16.74h169.515a44.71 44.71 0 0 0 29.877-17.587l2.542-3.603a34.539 34.539 0 0 0-3.178-42.378 43.862 43.862 0 0 0-29.241-16.74z" p-id="8952" fill="#ffffff"></path></svg>