<?xml version="1.0" standalone="no"?><!DOCTYPE svg PUBLIC "-//W3C//DTD SVG 1.1//EN" "http://www.w3.org/Graphics/SVG/1.1/DTD/svg11.dtd"><svg t="1615475800824" class="icon" viewBox="0 0 1024 1024" version="1.1" xmlns="http://www.w3.org/2000/svg" p-id="10388" xmlns:xlink="http://www.w3.org/1999/xlink" width="200" height="200"><defs><style type="text/css"></style></defs><path d="M968.986 294.936 968.986 109.569c0-30.081-24.265-54.534-54.097-54.534l-492.56 0-9.443-22.139C404.317 12.883 384.805 0 363.229 0L54.097 0C24.265 0 0 24.453 0 54.472l0 856.602c0 30.081 24.265 54.534 54.097 54.534l914.639 0c29.769 0 54.034-24.453 54.034-54.534L1022.77 349.408C1022.769 319.451 998.629 295.061 968.986 294.936zM896.69 294.936 478.489 294.936 443.013 127.33 896.69 127.33 896.69 294.936zM950.474 893.313 72.296 893.313 72.296 72.296l278.801 0 12.758 29.941 50.032 236.352c0.266 1.294 1.016 2.318 1.423 3.545 0.594 1.821 1.22 3.518 2.079 5.199 1.235 2.439 2.752 4.569 4.472 6.621 1.063 1.274 2.017 2.541 3.244 3.655 2.189 1.99 4.651 3.494 7.247 4.894 1.274 0.688 2.376 1.544 3.721 2.076 4.128 1.622 8.505 2.654 13.086 2.654 0.016 0 0.031-0.004 0.039-0.004s0.016 0.004 0.023 0.004L896.69 367.233l36.148 0 17.636 0L950.474 893.313z" p-id="10389" fill="#ffffff"></path></svg>