<?xml version="1.0" standalone="no"?><!DOCTYPE svg PUBLIC "-//W3C//DTD SVG 1.1//EN" "http://www.w3.org/Graphics/SVG/1.1/DTD/svg11.dtd"><svg t="1615475854633" class="icon" viewBox="0 0 1024 1024" version="1.1" xmlns="http://www.w3.org/2000/svg" p-id="14419" xmlns:xlink="http://www.w3.org/1999/xlink" width="200" height="200"><defs><style type="text/css"></style></defs><path d="M513 569.07c-4.88 0-9.77-1.19-14.2-3.57L146.46 376.16c-9.73-5.23-15.8-15.38-15.8-26.43s6.07-21.2 15.8-26.43L498.8 133.97a30.026 30.026 0 0 1 28.4 0l352.34 189.34c9.73 5.23 15.8 15.38 15.8 26.43s-6.07 21.2-15.8 26.43L527.2 565.5a30.007 30.007 0 0 1-14.2 3.57zM224.04 349.73L513 505.01l288.96-155.28L513 194.45 224.04 349.73z" p-id="14420" fill="#ffffff"></path><path d="M512.1 893.96c-42.66 0-87.82-5.65-134.23-16.8-33.64-8.08-63.96-27.54-85.36-54.8-21.36-27.2-33.13-61.23-33.13-95.84V430.8c0-16.57 13.43-30 30-30s30 13.43 30 30v295.73c0 44.08 29.81 82.04 72.5 92.29 41.83 10.05 82.27 15.14 120.21 15.14s78.39-5.09 120.21-15.14c42.69-10.26 72.5-48.21 72.5-92.29V430.8c0-16.57 13.43-30 30-30s30 13.43 30 30v295.73c0 34.6-11.76 68.64-33.13 95.84-21.41 27.25-51.72 46.72-85.36 54.8-46.39 11.14-91.55 16.79-134.21 16.79zM832.72 729.88c-16.57 0-30-13.43-30-30V387.3c0-16.57 13.43-30 30-30s30 13.43 30 30v312.58c0 16.57-13.43 30-30 30z" p-id="14421" fill="#ffffff"></path></svg>